<?xml version="1.0" encoding="UTF-8"?>
<svg xmlns="http://www.w3.org/2000/svg" version="1.1" viewBox="0 0 1920 542.32">
  <defs>
    <style>
      .cls-1 {
        fill-rule: evenodd;
      }

      .cls-1, .cls-2, .cls-3, .cls-4 {
        stroke-width: 0px;
      }

      .cls-1, .cls-5, .cls-4 {
        fill: #fff;
      }

      .cls-2, .cls-3 {
        fill: #1a938a;
      }

      .cls-5 {
        font-family: RATHER, RATHER;
        font-size: 91.38px;
        letter-spacing: .12em;
      }

      .cls-6 {
        isolation: isolate;
      }

      .cls-3 {
        mix-blend-mode: multiply;
        opacity: .2;
      }
    </style>
  </defs>
  <g class="cls-6">
    <g id="Capa_1" data-name="Capa 1">
      <polygon class="cls-2" points="882.71 542.32 .04 541.7 .04 270.79 .04 -.77 882.71 -.77 720.2 270.79 882.71 542.32"/>
      <polygon class="cls-2" points="1130.66 541.7 1028.3 541.7 882.71 270.46 1028.3 -.77 1130.66 -.77 997.66 270.14 1130.66 541.7"/>
      <rect class="cls-3" x=".04" y="270.14" width="1920.83" height="271.56"/>
      <g>
        <g>
          <path class="cls-4" d="M75.41,348.58s111.64,41.27,143.02-43.43c0,0,9.98-27.12,0-50.3,0,0,25.4,13.7,39.2,108.49,0,0,1.72,11.65-2.12-21.85-5.56-48.51-23.77-112.58-79.59-135.53,0,0,63.13,56.46,9.59,116.54-5.82,6.53-13.3,11.18-21.58,13.98-14.05,4.74-40.77,10.97-88.52,12.1"/>
          <path class="cls-4" d="M174.12,174.93l10.69-5.14-15.8-10.24-2.52-18.66-14.62,11.86-18.52-3.37,6.76,17.57-8.93,16.58,18.8-1,13.01,13.61,3.1-11.62c21.37,9.99,106.26,57.34,106.26,179.74,0,0,12.49-124.5-98.23-189.34Z"/>
        </g>
        <text class="cls-5" transform="translate(300.06 297.55)"><tspan x="0" y="0">Fortis</tspan></text>
      </g>
      <g id="Facebook">
        <circle class="cls-2" cx="1169.11" cy="269.25" r="62" transform="translate(-29.64 221.27) rotate(-10.68)"/>
        <path class="cls-4" d="M1174.57,254.74v-5.87c0-2.86,1.91-3.53,3.25-3.53h8.24v-12.58l-11.35-.05c-12.59,0-15.46,9.39-15.46,15.39v6.64h-7.28v14.69h7.35v36.72h14.69v-36.72h10.9l.53-5.77.81-8.92h-11.67Z"/>
      </g>
      <g id="Youtube">
        <path class="cls-2" d="M1541.57,270.14c0,34.24-27.76,62-62,62s-62-27.76-62-62,27.76-62,62-62,62,27.76,62,62Z"/>
        <path class="cls-1" d="M1514.34,255.36s-.73-5.11-2.85-7.34c-2.69-2.92-5.73-2.96-7.07-3.15-9.92-.73-24.8-.73-24.8-.73h-.08s-14.84,0-24.76.73c-1.42.19-4.42.23-7.11,3.15-2.12,2.23-2.84,7.34-2.84,7.34,0,0-.73,6-.73,11.92v5.65c0,6,.73,11.92.73,11.92,0,0,.73,5.11,2.84,7.38,2.69,2.96,6.23,2.85,7.84,3.15,5.65.58,24.11.77,24.11.77,0,0,14.88-.08,24.8-.77,1.35-.19,4.38-.19,7.07-3.15,2.12-2.27,2.85-7.38,2.85-7.38,0,0,.69-5.92.69-11.92v-5.65c0-5.92-.69-11.92-.69-11.92h0ZM1491.43,269.36l-19.19,10.34v-20.76l8.69,4.73,10.5,5.69Z"/>
      </g>
      <g id="X">
        <g id="Youtube-2" data-name="Youtube">
          <path class="cls-2" d="M1847.7,269.25c0,34.24-27.76,62-62,62s-62-27.76-62-62,27.76-62,62-62,62,27.76,62,62Z"/>
        </g>
        <path id="_Trazado_" data-name="&amp;lt;Trazado&amp;gt;" class="cls-4" d="M1791.94,264.11l24.42-28.38h-5.79l-21.2,24.65-16.93-24.65h-19.53l25.61,37.27-25.61,29.77h5.79l22.39-26.03,17.88,26.03h19.53l-26.56-38.65h0ZM1784.02,273.33l-2.59-3.71-20.64-29.53h8.89l16.66,23.83,2.59,3.71,21.66,30.98h-8.89l-17.67-25.28h0Z"/>
      </g>
      <g id="Tik_tok" data-name="Tik tok">
        <g id="Youtube-3" data-name="Youtube">
          <path class="cls-2" d="M1697.4,270.14c0,34.24-27.76,62-62,62s-62-27.76-62-62,27.76-62,62-62,62,27.76,62,62Z"/>
        </g>
        <path class="cls-4" d="M1658.99,249.4c-.49-.25-.97-.53-1.43-.83-1.34-.89-2.57-1.93-3.66-3.11-2.73-3.13-3.75-6.3-4.13-8.52h.02c-.31-1.84-.18-3.04-.16-3.04h-12.45v48.14c0,.65,0,1.29-.03,1.92,0,.08,0,.15-.01.24,0,.03,0,.07,0,.11v.03c-.27,3.51-2.26,6.65-5.32,8.39-1.57.89-3.34,1.36-5.15,1.36-5.8,0-10.5-4.73-10.5-10.57s4.7-10.57,10.5-10.57c1.1,0,2.19.17,3.23.51l.02-12.68c-6.41-.83-12.87,1.06-17.82,5.21-2.15,1.86-3.95,4.09-5.33,6.57-.53.91-2.51,4.55-2.75,10.46-.15,3.35.86,6.83,1.34,8.26v.03c.3.85,1.47,3.73,3.38,6.16,1.54,1.95,3.35,3.67,5.39,5.09v-.03l.03.03c6.03,4.1,12.71,3.83,12.71,3.83,1.16-.05,5.03,0,9.43-2.09,4.88-2.31,7.66-5.76,7.66-5.76,1.78-2.06,3.19-4.4,4.17-6.94,1.13-2.96,1.5-6.51,1.5-7.93v-25.54c.15.09,2.16,1.42,2.16,1.42,0,0,2.9,1.86,7.42,3.07,3.24.86,7.61,1.04,7.61,1.04v-12.36c-1.53.17-4.64-.32-7.82-1.9Z"/>
      </g>
      <g id="Instagram">
        <g id="Youtube-4" data-name="Youtube">
          <path class="cls-2" d="M1387.27,269.42c0,34.24-27.76,62-62,62s-62-27.76-62-62,27.76-62,62-62,62,27.76,62,62Z"/>
        </g>
        <g>
          <path class="cls-4" d="M1326.2,235.8c11.18,0,12.51.04,16.93.24,4.08.19,6.3.87,7.78,1.44,1.82.67,3.47,1.74,4.82,3.13,1.39,1.35,2.46,3,3.13,4.82.57,1.48,1.26,3.69,1.44,7.78.2,4.42.24,5.74.24,16.93s-.04,12.51-.24,16.93c-.19,4.08-.87,6.3-1.44,7.78-1.41,3.65-4.3,6.54-7.95,7.95-1.48.57-3.69,1.26-7.78,1.44-4.42.2-5.74.24-16.93.24s-12.51-.04-16.93-.24c-4.08-.19-6.3-.87-7.78-1.44-1.82-.67-3.47-1.74-4.82-3.13-1.39-1.35-2.46-3-3.13-4.82-.57-1.48-1.26-3.69-1.44-7.78-.2-4.42-.24-5.74-.24-16.93s.04-12.51.24-16.93c.19-4.08.87-6.3,1.44-7.78.67-1.82,1.74-3.47,3.13-4.82,1.35-1.39,3-2.46,4.82-3.13,1.48-.57,3.69-1.26,7.78-1.44,4.42-.2,5.74-.24,16.93-.24M1326.2,228.25c-11.38,0-12.8.05-17.27.25-4.46.2-7.5.91-10.17,1.95-2.79,1.05-5.33,2.7-7.42,4.83-2.13,2.09-3.78,4.62-4.83,7.42-1.03,2.66-1.74,5.71-1.95,10.17-.2,4.47-.25,5.89-.25,17.27s.05,12.8.25,17.27c.2,4.46.91,7.5,1.95,10.17,1.05,2.79,2.7,5.33,4.83,7.42,2.09,2.13,4.62,3.78,7.42,4.83,2.66,1.04,5.71,1.74,10.17,1.95,4.47.2,5.89.25,17.27.25s12.8-.05,17.27-.25c4.46-.2,7.5-.91,10.17-1.95,5.63-2.18,10.07-6.62,12.25-12.25,1.04-2.66,1.74-5.71,1.95-10.17.2-4.47.25-5.89.25-17.27s-.05-12.8-.25-17.27c-.2-4.46-.91-7.5-1.95-10.17-1.05-2.79-2.7-5.33-4.83-7.42-2.09-2.13-4.62-3.78-7.42-4.83-2.66-1.03-5.71-1.74-10.17-1.95-4.47-.2-5.89-.25-17.27-.25h0Z"/>
          <path class="cls-4" d="M1326.2,248.63c-11.88,0-21.51,9.63-21.51,21.51s9.63,21.51,21.51,21.51,21.51-9.63,21.51-21.51h0c0-11.88-9.63-21.51-21.51-21.51ZM1326.2,284.1c-7.71,0-13.96-6.25-13.96-13.96,0-7.71,6.25-13.96,13.96-13.96,7.71,0,13.96,6.25,13.96,13.96,0,7.71-6.25,13.96-13.96,13.96Z"/>
          <path class="cls-4" d="M1348.56,242.76c2.78,0,5.03,2.25,5.03,5.03s-2.25,5.03-5.03,5.03-5.03-2.25-5.03-5.03,2.25-5.03,5.03-5.03Z"/>
        </g>
      </g>
      <g>
        <path class="cls-2" d="M1187.99,525.08v-14.71h6.68c1.6,0,3,.3,4.22.91s2.17,1.46,2.86,2.56c.69,1.1,1.03,2.39,1.03,3.88s-.34,2.78-1.03,3.88-1.64,1.95-2.86,2.56-2.63.91-4.22.91h-6.68ZM1191.42,522.3h3.09c.98,0,1.83-.19,2.55-.56.72-.37,1.28-.9,1.68-1.6.4-.69.6-1.5.6-2.43s-.2-1.75-.6-2.44c-.4-.69-.96-1.21-1.68-1.59s-1.57-.56-2.55-.56h-3.09v9.16Z"/>
        <path class="cls-2" d="M1210.73,525.25c-1.29,0-2.42-.25-3.38-.76-.97-.5-1.72-1.19-2.25-2.07-.53-.88-.8-1.87-.8-2.99s.26-2.12.77-3.01c.51-.88,1.23-1.57,2.14-2.07.92-.5,1.95-.75,3.1-.75s2.11.24,3,.71c.89.48,1.59,1.15,2.11,2.02.52.87.78,1.91.78,3.13,0,.13,0,.27-.02.43-.01.16-.03.31-.04.45h-9.18v-1.91h7.46l-1.28.57c.01-.59-.1-1.1-.34-1.53-.24-.43-.57-.77-.99-1.02s-.91-.37-1.47-.37-1.05.12-1.48.37c-.43.25-.76.59-1,1.03-.24.44-.36.96-.36,1.57v.5c0,.63.14,1.18.42,1.64.28.46.67.82,1.16,1.06.49.25,1.08.37,1.76.37.59,0,1.11-.09,1.57-.27.46-.18.87-.46,1.25-.82l1.74,1.89c-.52.59-1.17,1.04-1.95,1.36-.79.32-1.69.47-2.71.47Z"/>
        <path class="cls-2" d="M1218.38,525.08v-11.31h3.13v3.21l-.44-.95c.34-.8.88-1.4,1.62-1.82.74-.41,1.65-.62,2.71-.62v3.05c-.13-.03-.25-.05-.37-.06s-.24-.02-.35-.02c-.92,0-1.66.26-2.21.78-.55.52-.82,1.32-.82,2.4v5.34h-3.28Z"/>
        <path class="cls-2" d="M1233.04,525.25c-1.29,0-2.42-.25-3.38-.76-.97-.5-1.72-1.19-2.25-2.07-.53-.88-.8-1.87-.8-2.99s.26-2.12.77-3.01c.51-.88,1.23-1.57,2.14-2.07.92-.5,1.95-.75,3.1-.75s2.11.24,3,.71c.89.48,1.59,1.15,2.11,2.02.52.87.78,1.91.78,3.13,0,.13,0,.27-.02.43-.01.16-.03.31-.04.45h-9.18v-1.91h7.46l-1.28.57c.01-.59-.1-1.1-.34-1.53-.24-.43-.57-.77-.99-1.02s-.91-.37-1.47-.37-1.05.12-1.48.37c-.43.25-.76.59-1,1.03-.24.44-.36.96-.36,1.57v.5c0,.63.14,1.18.42,1.64.28.46.67.82,1.16,1.06.49.25,1.08.37,1.76.37.59,0,1.11-.09,1.57-.27.46-.18.87-.46,1.25-.82l1.74,1.89c-.52.59-1.17,1.04-1.95,1.36-.79.32-1.69.47-2.71.47Z"/>
        <path class="cls-2" d="M1246.16,525.25c-1.22,0-2.3-.25-3.25-.75-.95-.5-1.69-1.19-2.23-2.07-.54-.88-.81-1.88-.81-3s.27-2.14.81-3.01c.54-.87,1.28-1.55,2.23-2.06.95-.5,2.03-.76,3.25-.76s2.23.25,3.12.75c.89.5,1.53,1.2,1.92,2.11l-2.52,1.39c-.31-.53-.68-.92-1.11-1.17-.43-.24-.91-.37-1.43-.37-.55,0-1.04.12-1.49.37-.45.25-.81.6-1.07,1.06-.27.46-.4,1.02-.4,1.68s.13,1.22.4,1.69c.27.47.62.83,1.07,1.07.45.25.95.37,1.49.37.52,0,.99-.12,1.43-.37.43-.25.81-.64,1.11-1.19l2.52,1.39c-.39.9-1.03,1.6-1.92,2.1-.89.5-1.93.76-3.12.76Z"/>
        <path class="cls-2" d="M1259.98,513.6c.9,0,1.7.18,2.41.54.71.36,1.26.9,1.67,1.64s.61,1.68.61,2.83v6.47h-3.28v-5.97c0-.91-.2-1.58-.6-2.02-.4-.43-.96-.65-1.69-.65-.52,0-.98.11-1.4.34-.41.22-.74.55-.97.99-.23.43-.35,1.01-.35,1.72v5.59h-3.28v-15.59h3.28v7.42l-.74-.95c.41-.76.99-1.34,1.74-1.74s1.62-.61,2.58-.61Z"/>
        <path class="cls-2" d="M1272.99,525.25c-1.19,0-2.25-.25-3.18-.76-.93-.5-1.66-1.19-2.2-2.07-.53-.88-.8-1.87-.8-2.99s.27-2.14.8-3.02c.53-.88,1.26-1.56,2.2-2.06s1.99-.75,3.18-.75,2.28.25,3.22.75c.94.5,1.67,1.18,2.21,2.06.53.88.8,1.88.8,3.02s-.27,2.14-.8,3c-.53.87-1.27,1.55-2.21,2.06-.94.5-2.01.76-3.22.76ZM1272.99,522.56c.56,0,1.05-.12,1.48-.37.43-.25.77-.61,1.03-1.08.26-.48.39-1.04.39-1.68s-.13-1.22-.39-1.68c-.26-.46-.6-.82-1.03-1.06-.43-.24-.92-.37-1.46-.37s-1.04.12-1.47.37c-.43.25-.78.6-1.04,1.06-.26.46-.39,1.02-.39,1.68s.13,1.21.39,1.68c.26.48.61.84,1.04,1.08.43.25.92.37,1.45.37Z"/>
        <path class="cls-2" d="M1285.2,525.25c-.97,0-1.89-.12-2.77-.35-.88-.23-1.59-.52-2.12-.87l1.07-2.33c.53.31,1.15.56,1.86.77s1.4.3,2.09.3c.76,0,1.29-.09,1.61-.27.32-.18.47-.43.47-.76,0-.27-.12-.47-.37-.6-.25-.13-.57-.23-.97-.3-.4-.07-.84-.14-1.33-.21-.49-.07-.98-.17-1.46-.29s-.93-.3-1.34-.54-.74-.55-.99-.96c-.25-.41-.37-.93-.37-1.58,0-.71.21-1.35.63-1.9.42-.55,1.02-.98,1.79-1.29.77-.31,1.7-.46,2.79-.46.78,0,1.57.09,2.36.26.79.18,1.46.42,2.01.72l-1.11,2.33c-.53-.31-1.08-.53-1.63-.65s-1.08-.19-1.59-.19c-.76,0-1.3.1-1.64.29-.34.2-.5.45-.5.76,0,.28.13.49.38.64.25.15.58.26.99.33s.85.14,1.35.21c.49.07.97.17,1.45.29.48.13.92.3,1.33.54s.74.55.99.96.37.93.37,1.58c0,.69-.21,1.3-.63,1.84-.42.54-1.03.96-1.82,1.27-.79.31-1.75.46-2.89.46Z"/>
        <path class="cls-2" d="M1303.36,525.25c-1.06,0-2.02-.24-2.88-.72s-1.53-1.16-2.02-2.03c-.49-.87-.74-1.89-.74-3.07s.25-2.2.74-3.07c.49-.87,1.16-1.54,2.02-2.03s1.81-.72,2.88-.72c.95,0,1.79.21,2.5.63.71.42,1.27,1.06,1.66,1.91.39.85.59,1.95.59,3.28s-.19,2.41-.57,3.28c-.38.87-.92,1.51-1.63,1.92-.71.41-1.56.62-2.55.62ZM1303.9,522.56c.55,0,1.04-.12,1.47-.37.43-.25.78-.61,1.04-1.08.26-.48.39-1.04.39-1.68s-.13-1.22-.39-1.68c-.26-.46-.61-.82-1.04-1.06-.43-.24-.92-.37-1.47-.37s-1.02.12-1.45.37c-.43.25-.78.6-1.04,1.06-.26.46-.39,1.02-.39,1.68s.13,1.21.39,1.68c.26.48.61.84,1.04,1.08.43.25.92.37,1.45.37ZM1306.89,525.08v-2.31l.06-3.36-.21-3.34v-6.58h3.28v15.59h-3.13Z"/>
        <path class="cls-2" d="M1318.65,525.25c-1.29,0-2.42-.25-3.38-.76-.97-.5-1.72-1.19-2.25-2.07-.53-.88-.8-1.87-.8-2.99s.26-2.12.77-3.01c.51-.88,1.23-1.57,2.14-2.07.92-.5,1.95-.75,3.1-.75s2.11.24,3,.71c.89.48,1.59,1.15,2.11,2.02.52.87.78,1.91.78,3.13,0,.13,0,.27-.02.43-.01.16-.03.31-.04.45h-9.18v-1.91h7.46l-1.28.57c.01-.59-.1-1.1-.34-1.53-.24-.43-.57-.77-.99-1.02s-.91-.37-1.47-.37-1.05.12-1.48.37c-.43.25-.76.59-1,1.03-.24.44-.36.96-.36,1.57v.5c0,.63.14,1.18.42,1.64.28.46.67.82,1.16,1.06.49.25,1.08.37,1.76.37.59,0,1.11-.09,1.57-.27.46-.18.87-.46,1.25-.82l1.74,1.89c-.52.59-1.17,1.04-1.95,1.36-.79.32-1.69.47-2.71.47Z"/>
        <path class="cls-2" d="M1335.74,525.25c-.87,0-1.62-.15-2.25-.45-.63-.3-1.12-.71-1.46-1.23-.34-.52-.51-1.1-.51-1.74s.17-1.24.49-1.75.85-.91,1.57-1.19,1.65-.42,2.82-.42h2.98v1.89h-2.65c-.77,0-1.3.13-1.59.38s-.43.57-.43.95c0,.42.16.75.49,1,.33.25.77.37,1.33.37s1.06-.13,1.5-.38c.44-.25.75-.64.93-1.16l.5,1.53c-.24.7-.67,1.24-1.3,1.63-.63.39-1.44.58-2.44.58ZM1339.18,525.08v-2.21l-.21-.48v-3.95c0-.7-.21-1.25-.64-1.64-.43-.39-1.08-.59-1.96-.59-.6,0-1.19.09-1.78.28-.58.19-1.08.44-1.5.77l-1.16-2.29c.62-.45,1.36-.79,2.23-1.02.87-.23,1.75-.35,2.65-.35,1.72,0,3.06.41,4.01,1.22.95.81,1.43,2.08,1.43,3.8v6.45h-3.07Z"/>
        <path class="cls-2" d="M1349.99,525.25c-.95,0-1.79-.18-2.52-.55s-1.3-.92-1.7-1.68c-.41-.76-.61-1.71-.61-2.86v-6.39h3.28v5.88c0,.95.2,1.65.6,2.09s.96.66,1.69.66c.5,0,.95-.11,1.34-.34.39-.22.7-.56.94-1.01s.35-1.01.35-1.68v-5.61h3.26v11.31h-3.11v-3.13l.57.92c-.39.78-.95,1.38-1.68,1.78s-1.53.6-2.4.6Z"/>
        <path class="cls-2" d="M1358.31,516.55v-2.52h7.84v2.52h-7.84ZM1364.27,525.25c-1.33,0-2.37-.34-3.11-1.02-.74-.68-1.11-1.69-1.11-3.04v-9.92h3.3v9.86c0,.48.12.85.37,1.11.25.27.58.4,1,.4.53,0,.98-.14,1.34-.42l.86,2.31c-.32.24-.72.42-1.19.54-.47.12-.96.18-1.46.18Z"/>
        <path class="cls-2" d="M1374.15,525.25c-1.19,0-2.25-.25-3.18-.76-.93-.5-1.66-1.19-2.2-2.07-.53-.88-.8-1.87-.8-2.99s.27-2.14.8-3.02c.53-.88,1.26-1.56,2.2-2.06s1.99-.75,3.18-.75,2.28.25,3.22.75c.94.5,1.67,1.18,2.21,2.06.53.88.8,1.88.8,3.02s-.27,2.14-.8,3c-.53.87-1.27,1.55-2.21,2.06-.94.5-2.01.76-3.22.76ZM1374.15,522.56c.56,0,1.05-.12,1.48-.37.43-.25.77-.61,1.03-1.08.26-.48.39-1.04.39-1.68s-.13-1.22-.39-1.68c-.26-.46-.6-.82-1.03-1.06-.43-.24-.92-.37-1.46-.37s-1.04.12-1.47.37c-.43.25-.78.6-1.04,1.06-.26.46-.39,1.02-.39,1.68s.13,1.21.39,1.68c.26.48.61.84,1.04,1.08.43.25.92.37,1.45.37Z"/>
        <path class="cls-2" d="M1382.56,525.08v-11.31h3.13v3.21l-.44-.95c.34-.8.88-1.4,1.62-1.82.74-.41,1.65-.62,2.71-.62v3.05c-.13-.03-.25-.05-.37-.06s-.24-.02-.35-.02c-.92,0-1.66.26-2.21.78-.55.52-.82,1.32-.82,2.4v5.34h-3.28Z"/>
        <path class="cls-2" d="M1404.26,525.14c-1.05,0-2.03-.19-2.92-.57-.9-.38-1.68-.91-2.35-1.59-.67-.68-1.2-1.47-1.57-2.36s-.56-1.86-.56-2.9.19-2,.57-2.9c.38-.9.9-1.68,1.58-2.36.67-.68,1.46-1.21,2.36-1.59.9-.38,1.88-.57,2.93-.57s2.03.19,2.93.56c.9.37,1.69.89,2.35,1.57.67.67,1.18,1.45,1.55,2.34s.56,1.86.56,2.91-.19,2.03-.57,2.93c-.38.9-.91,1.7-1.59,2.38s-1.47,1.21-2.36,1.59c-.9.38-1.87.57-2.92.57ZM1404.26,523.77c.85,0,1.65-.16,2.37-.47.73-.32,1.36-.75,1.9-1.29.54-.55.96-1.19,1.26-1.93.3-.74.45-1.54.45-2.4s-.15-1.65-.44-2.39c-.29-.74-.7-1.37-1.23-1.91-.53-.54-1.15-.96-1.87-1.26-.72-.3-1.52-.45-2.41-.45s-1.65.15-2.4.46c-.74.31-1.38.74-1.91,1.29-.53.55-.95,1.2-1.24,1.93s-.44,1.52-.44,2.36.15,1.63.44,2.37c.29.74.71,1.39,1.24,1.93.53.55,1.17.97,1.9,1.28.74.31,1.52.46,2.36.46ZM1404.54,521.97c-.85,0-1.62-.18-2.3-.54-.68-.36-1.21-.86-1.6-1.5-.39-.64-.58-1.38-.58-2.21s.19-1.56.58-2.21c.38-.64.92-1.15,1.6-1.5.68-.36,1.45-.54,2.3-.54s1.57.17,2.2.53,1.09.84,1.4,1.47l-1.89,1.11c-.2-.35-.44-.6-.74-.76s-.62-.23-.99-.23-.7.08-1,.25c-.3.17-.54.41-.73.74-.18.32-.27.7-.27,1.13s.09.81.27,1.13c.18.32.42.57.73.74.3.17.63.25,1,.25s.69-.08.99-.23c.29-.15.54-.41.74-.76l1.89,1.09c-.31.62-.77,1.11-1.4,1.47s-1.36.55-2.2.55Z"/>
        <path class="cls-2" d="M1423.66,525.08h-3.42v-14.71h11.12v2.73h-7.69v11.98ZM1423.39,516.99h7.06v2.73h-7.06v-2.73Z"/>
        <path class="cls-2" d="M1438.79,525.25c-1.19,0-2.25-.25-3.18-.76-.93-.5-1.66-1.19-2.2-2.07-.53-.88-.8-1.87-.8-2.99s.27-2.14.8-3.02c.53-.88,1.26-1.56,2.2-2.06s1.99-.75,3.18-.75,2.28.25,3.22.75c.94.5,1.67,1.18,2.21,2.06.53.88.8,1.88.8,3.02s-.27,2.14-.8,3c-.53.87-1.27,1.55-2.21,2.06-.94.5-2.01.76-3.22.76ZM1438.79,522.56c.56,0,1.05-.12,1.48-.37.43-.25.77-.61,1.03-1.08.26-.48.39-1.04.39-1.68s-.13-1.22-.39-1.68c-.26-.46-.6-.82-1.03-1.06-.43-.24-.92-.37-1.46-.37s-1.04.12-1.47.37c-.43.25-.78.6-1.04,1.06-.26.46-.39,1.02-.39,1.68s.13,1.21.39,1.68c.26.48.61.84,1.04,1.08.43.25.92.37,1.45.37Z"/>
        <path class="cls-2" d="M1447.19,525.08v-11.31h3.13v3.21l-.44-.95c.34-.8.88-1.4,1.62-1.82.74-.41,1.65-.62,2.71-.62v3.05c-.13-.03-.25-.05-.37-.06s-.24-.02-.35-.02c-.92,0-1.66.26-2.21.78-.55.52-.82,1.32-.82,2.4v5.34h-3.28Z"/>
        <path class="cls-2" d="M1454.91,516.55v-2.52h7.84v2.52h-7.84ZM1460.87,525.25c-1.33,0-2.37-.34-3.11-1.02-.74-.68-1.11-1.69-1.11-3.04v-9.92h3.3v9.86c0,.48.12.85.37,1.11.25.27.58.4,1,.4.53,0,.98-.14,1.34-.42l.86,2.31c-.32.24-.72.42-1.19.54-.47.12-.96.18-1.46.18Z"/>
        <path class="cls-2" d="M1467.03,512.2c-.62,0-1.11-.17-1.49-.53-.38-.35-.57-.78-.57-1.3s.19-.95.57-1.3c.38-.35.88-.53,1.49-.53s1.1.17,1.48.49c.38.33.58.75.58,1.27,0,.55-.19,1-.57,1.36-.38.36-.88.54-1.49.54ZM1465.39,525.08v-11.31h3.28v11.31h-3.28Z"/>
        <path class="cls-2" d="M1475.52,525.25c-.97,0-1.89-.12-2.77-.35-.88-.23-1.59-.52-2.12-.87l1.07-2.33c.53.31,1.15.56,1.86.77s1.4.3,2.09.3c.76,0,1.29-.09,1.61-.27.32-.18.47-.43.47-.76,0-.27-.12-.47-.37-.6-.25-.13-.57-.23-.97-.3-.4-.07-.84-.14-1.33-.21-.49-.07-.98-.17-1.46-.29s-.93-.3-1.34-.54-.74-.55-.99-.96c-.25-.41-.37-.93-.37-1.58,0-.71.21-1.35.63-1.9.42-.55,1.02-.98,1.79-1.29.77-.31,1.7-.46,2.79-.46.78,0,1.57.09,2.36.26.79.18,1.46.42,2.01.72l-1.11,2.33c-.53-.31-1.08-.53-1.63-.65s-1.08-.19-1.59-.19c-.76,0-1.3.1-1.64.29-.34.2-.5.45-.5.76,0,.28.13.49.38.64.25.15.58.26.99.33s.85.14,1.35.21c.49.07.97.17,1.45.29.48.13.92.3,1.33.54s.74.55.99.96.37.93.37,1.58c0,.69-.21,1.3-.63,1.84-.42.54-1.03.96-1.82,1.27-.79.31-1.75.46-2.89.46Z"/>
        <path class="cls-2" d="M1484.12,525.25c-.56,0-1.04-.19-1.44-.58-.4-.38-.6-.87-.6-1.46s.2-1.11.6-1.49.88-.57,1.44-.57,1.06.19,1.45.57c.39.38.59.88.59,1.49s-.2,1.08-.59,1.46c-.39.39-.88.58-1.45.58Z"/>
        <path class="cls-2" d="M1497.61,525.08v-11.94h-4.71v-2.77h12.82v2.77h-4.71v11.94h-3.4Z"/>
        <path class="cls-2" d="M1512.67,525.25c-1.19,0-2.25-.25-3.18-.76-.93-.5-1.66-1.19-2.2-2.07-.53-.88-.8-1.87-.8-2.99s.27-2.14.8-3.02c.53-.88,1.26-1.56,2.2-2.06s1.99-.75,3.18-.75,2.28.25,3.22.75c.94.5,1.67,1.18,2.21,2.06.53.88.8,1.88.8,3.02s-.27,2.14-.8,3c-.53.87-1.27,1.55-2.21,2.06-.94.5-2.01.76-3.22.76ZM1512.67,522.56c.56,0,1.05-.12,1.48-.37.43-.25.77-.61,1.03-1.08.26-.48.39-1.04.39-1.68s-.13-1.22-.39-1.68c-.26-.46-.6-.82-1.03-1.06-.43-.24-.92-.37-1.46-.37s-1.04.12-1.47.37c-.43.25-.78.6-1.04,1.06-.26.46-.39,1.02-.39,1.68s.13,1.21.39,1.68c.26.48.61.84,1.04,1.08.43.25.92.37,1.45.37Z"/>
        <path class="cls-2" d="M1525.93,525.25c-1.06,0-2.02-.24-2.88-.72s-1.53-1.16-2.02-2.03c-.49-.87-.74-1.89-.74-3.07s.25-2.2.74-3.07c.49-.87,1.16-1.54,2.02-2.03s1.81-.72,2.88-.72c.95,0,1.79.21,2.5.63.71.42,1.27,1.06,1.66,1.91.39.85.59,1.95.59,3.28s-.19,2.41-.57,3.28c-.38.87-.92,1.51-1.63,1.92-.71.41-1.56.62-2.55.62ZM1526.48,522.56c.55,0,1.04-.12,1.47-.37.43-.25.78-.61,1.04-1.08.26-.48.39-1.04.39-1.68s-.13-1.22-.39-1.68c-.26-.46-.61-.82-1.04-1.06-.43-.24-.92-.37-1.47-.37s-1.02.12-1.45.37c-.43.25-.78.6-1.04,1.06-.26.46-.39,1.02-.39,1.68s.13,1.21.39,1.68c.26.48.61.84,1.04,1.08.43.25.92.37,1.45.37ZM1529.46,525.08v-2.31l.06-3.36-.21-3.34v-6.58h3.28v15.59h-3.13Z"/>
        <path class="cls-2" d="M1540.98,525.25c-1.19,0-2.25-.25-3.18-.76-.93-.5-1.66-1.19-2.2-2.07-.53-.88-.8-1.87-.8-2.99s.27-2.14.8-3.02c.53-.88,1.26-1.56,2.2-2.06s1.99-.75,3.18-.75,2.28.25,3.22.75c.94.5,1.67,1.18,2.21,2.06.53.88.8,1.88.8,3.02s-.27,2.14-.8,3c-.53.87-1.27,1.55-2.21,2.06-.94.5-2.01.76-3.22.76ZM1540.98,522.56c.56,0,1.05-.12,1.48-.37.43-.25.77-.61,1.03-1.08.26-.48.39-1.04.39-1.68s-.13-1.22-.39-1.68c-.26-.46-.6-.82-1.03-1.06-.43-.24-.92-.37-1.46-.37s-1.04.12-1.47.37c-.43.25-.78.6-1.04,1.06-.26.46-.39,1.02-.39,1.68s.13,1.21.39,1.68c.26.48.61.84,1.04,1.08.43.25.92.37,1.45.37Z"/>
        <path class="cls-2" d="M1553.19,525.25c-.97,0-1.89-.12-2.77-.35-.88-.23-1.59-.52-2.12-.87l1.07-2.33c.53.31,1.15.56,1.86.77s1.4.3,2.09.3c.76,0,1.29-.09,1.61-.27.32-.18.47-.43.47-.76,0-.27-.12-.47-.37-.6-.25-.13-.57-.23-.97-.3-.4-.07-.84-.14-1.33-.21-.49-.07-.98-.17-1.46-.29s-.93-.3-1.34-.54-.74-.55-.99-.96c-.25-.41-.37-.93-.37-1.58,0-.71.21-1.35.63-1.9.42-.55,1.02-.98,1.79-1.29.77-.31,1.7-.46,2.79-.46.78,0,1.57.09,2.36.26.79.18,1.46.42,2.01.72l-1.11,2.33c-.53-.31-1.08-.53-1.63-.65s-1.08-.19-1.59-.19c-.76,0-1.3.1-1.64.29-.34.2-.5.45-.5.76,0,.28.13.49.38.64.25.15.58.26.99.33s.85.14,1.35.21c.49.07.97.17,1.45.29.48.13.92.3,1.33.54s.74.55.99.96.37.93.37,1.58c0,.69-.21,1.3-.63,1.84-.42.54-1.03.96-1.82,1.27-.79.31-1.75.46-2.89.46Z"/>
        <path class="cls-2" d="M1566.49,525.08v-15.59h3.28v15.59h-3.28Z"/>
        <path class="cls-2" d="M1578.17,525.25c-1.19,0-2.25-.25-3.18-.76-.93-.5-1.66-1.19-2.2-2.07-.53-.88-.8-1.87-.8-2.99s.27-2.14.8-3.02c.53-.88,1.26-1.56,2.2-2.06s1.99-.75,3.18-.75,2.28.25,3.22.75c.94.5,1.67,1.18,2.21,2.06.53.88.8,1.88.8,3.02s-.27,2.14-.8,3c-.53.87-1.27,1.55-2.21,2.06-.94.5-2.01.76-3.22.76ZM1578.17,522.56c.56,0,1.05-.12,1.48-.37.43-.25.77-.61,1.03-1.08.26-.48.39-1.04.39-1.68s-.13-1.22-.39-1.68c-.26-.46-.6-.82-1.03-1.06-.43-.24-.92-.37-1.46-.37s-1.04.12-1.47.37c-.43.25-.78.6-1.04,1.06-.26.46-.39,1.02-.39,1.68s.13,1.21.39,1.68c.26.48.61.84,1.04,1.08.43.25.92.37,1.45.37Z"/>
        <path class="cls-2" d="M1590.38,525.25c-.97,0-1.89-.12-2.77-.35-.88-.23-1.59-.52-2.12-.87l1.07-2.33c.53.31,1.15.56,1.86.77s1.4.3,2.09.3c.76,0,1.29-.09,1.61-.27.32-.18.47-.43.47-.76,0-.27-.12-.47-.37-.6-.25-.13-.57-.23-.97-.3-.4-.07-.84-.14-1.33-.21-.49-.07-.98-.17-1.46-.29s-.93-.3-1.34-.54-.74-.55-.99-.96c-.25-.41-.37-.93-.37-1.58,0-.71.21-1.35.63-1.9.42-.55,1.02-.98,1.79-1.29.77-.31,1.7-.46,2.79-.46.78,0,1.57.09,2.36.26.79.18,1.46.42,2.01.72l-1.11,2.33c-.53-.31-1.08-.53-1.63-.65s-1.08-.19-1.59-.19c-.76,0-1.3.1-1.64.29-.34.2-.5.45-.5.76,0,.28.13.49.38.64.25.15.58.26.99.33s.85.14,1.35.21c.49.07.97.17,1.45.29.48.13.92.3,1.33.54s.74.55.99.96.37.93.37,1.58c0,.69-.21,1.3-.63,1.84-.42.54-1.03.96-1.82,1.27-.79.31-1.75.46-2.89.46Z"/>
        <path class="cls-2" d="M1608.54,525.25c-1.06,0-2.02-.24-2.88-.72s-1.53-1.16-2.02-2.03c-.49-.87-.74-1.89-.74-3.07s.25-2.2.74-3.07c.49-.87,1.16-1.54,2.02-2.03s1.81-.72,2.88-.72c.95,0,1.79.21,2.5.63.71.42,1.27,1.06,1.66,1.91.39.85.59,1.95.59,3.28s-.19,2.41-.57,3.28c-.38.87-.92,1.51-1.63,1.92-.71.41-1.56.62-2.55.62ZM1609.08,522.56c.55,0,1.04-.12,1.47-.37.43-.25.78-.61,1.04-1.08.26-.48.39-1.04.39-1.68s-.13-1.22-.39-1.68c-.26-.46-.61-.82-1.04-1.06-.43-.24-.92-.37-1.47-.37s-1.02.12-1.45.37c-.43.25-.78.6-1.04,1.06-.26.46-.39,1.02-.39,1.68s.13,1.21.39,1.68c.26.48.61.84,1.04,1.08.43.25.92.37,1.45.37ZM1612.07,525.08v-2.31l.06-3.36-.21-3.34v-6.58h3.28v15.59h-3.13Z"/>
        <path class="cls-2" d="M1623.84,525.25c-1.29,0-2.42-.25-3.38-.76-.97-.5-1.72-1.19-2.25-2.07-.53-.88-.8-1.87-.8-2.99s.26-2.12.77-3.01c.51-.88,1.23-1.57,2.14-2.07.92-.5,1.95-.75,3.1-.75s2.11.24,3,.71c.89.48,1.59,1.15,2.11,2.02.52.87.78,1.91.78,3.13,0,.13,0,.27-.02.43-.01.16-.03.31-.04.45h-9.18v-1.91h7.46l-1.28.57c.01-.59-.1-1.1-.34-1.53-.24-.43-.57-.77-.99-1.02s-.91-.37-1.47-.37-1.05.12-1.48.37c-.43.25-.76.59-1,1.03-.24.44-.36.96-.36,1.57v.5c0,.63.14,1.18.42,1.64.28.46.67.82,1.16,1.06.49.25,1.08.37,1.76.37.59,0,1.11-.09,1.57-.27.46-.18.87-.46,1.25-.82l1.74,1.89c-.52.59-1.17,1.04-1.95,1.36-.79.32-1.69.47-2.71.47Z"/>
        <path class="cls-2" d="M1631.48,525.08v-11.31h3.13v3.21l-.44-.95c.34-.8.88-1.4,1.62-1.82.74-.41,1.65-.62,2.71-.62v3.05c-.13-.03-.25-.05-.37-.06s-.24-.02-.35-.02c-.92,0-1.66.26-2.21.78-.55.52-.82,1.32-.82,2.4v5.34h-3.28Z"/>
        <path class="cls-2" d="M1646.15,525.25c-1.29,0-2.42-.25-3.38-.76-.97-.5-1.72-1.19-2.25-2.07-.53-.88-.8-1.87-.8-2.99s.26-2.12.77-3.01c.51-.88,1.23-1.57,2.14-2.07.92-.5,1.95-.75,3.1-.75s2.11.24,3,.71c.89.48,1.59,1.15,2.11,2.02.52.87.78,1.91.78,3.13,0,.13,0,.27-.02.43-.01.16-.03.31-.04.45h-9.18v-1.91h7.46l-1.28.57c.01-.59-.1-1.1-.34-1.53-.24-.43-.57-.77-.99-1.02s-.91-.37-1.47-.37-1.05.12-1.48.37c-.43.25-.76.59-1,1.03-.24.44-.36.96-.36,1.57v.5c0,.63.14,1.18.42,1.64.28.46.67.82,1.16,1.06.49.25,1.08.37,1.76.37.59,0,1.11-.09,1.57-.27.46-.18.87-.46,1.25-.82l1.74,1.89c-.52.59-1.17,1.04-1.95,1.36-.79.32-1.69.47-2.71.47Z"/>
        <path class="cls-2" d="M1659.26,525.25c-1.22,0-2.3-.25-3.25-.75-.95-.5-1.69-1.19-2.23-2.07-.54-.88-.81-1.88-.81-3s.27-2.14.81-3.01c.54-.87,1.28-1.55,2.23-2.06.95-.5,2.03-.76,3.25-.76s2.23.25,3.12.75c.89.5,1.53,1.2,1.92,2.11l-2.52,1.39c-.31-.53-.68-.92-1.11-1.17-.43-.24-.91-.37-1.43-.37-.55,0-1.04.12-1.49.37-.45.25-.81.6-1.07,1.06-.27.46-.4,1.02-.4,1.68s.13,1.22.4,1.69c.27.47.62.83,1.07,1.07.45.25.95.37,1.49.37.52,0,.99-.12,1.43-.37.43-.25.81-.64,1.11-1.19l2.52,1.39c-.39.9-1.03,1.6-1.92,2.1-.89.5-1.93.76-3.12.76Z"/>
        <path class="cls-2" d="M1673.09,513.6c.9,0,1.7.18,2.41.54.71.36,1.26.9,1.67,1.64s.61,1.68.61,2.83v6.47h-3.28v-5.97c0-.91-.2-1.58-.6-2.02-.4-.43-.96-.65-1.69-.65-.52,0-.98.11-1.4.34-.41.22-.74.55-.97.99-.23.43-.35,1.01-.35,1.72v5.59h-3.28v-15.59h3.28v7.42l-.74-.95c.41-.76.99-1.34,1.74-1.74s1.62-.61,2.58-.61Z"/>
        <path class="cls-2" d="M1686.1,525.25c-1.19,0-2.25-.25-3.18-.76-.93-.5-1.66-1.19-2.2-2.07-.53-.88-.8-1.87-.8-2.99s.27-2.14.8-3.02c.53-.88,1.26-1.56,2.2-2.06s1.99-.75,3.18-.75,2.28.25,3.22.75c.94.5,1.67,1.18,2.21,2.06.53.88.8,1.88.8,3.02s-.27,2.14-.8,3c-.53.87-1.27,1.55-2.21,2.06-.94.5-2.01.76-3.22.76ZM1686.1,522.56c.56,0,1.05-.12,1.48-.37.43-.25.77-.61,1.03-1.08.26-.48.39-1.04.39-1.68s-.13-1.22-.39-1.68c-.26-.46-.6-.82-1.03-1.06-.43-.24-.92-.37-1.46-.37s-1.04.12-1.47.37c-.43.25-.78.6-1.04,1.06-.26.46-.39,1.02-.39,1.68s.13,1.21.39,1.68c.26.48.61.84,1.04,1.08.43.25.92.37,1.45.37Z"/>
        <path class="cls-2" d="M1698.31,525.25c-.97,0-1.89-.12-2.77-.35-.88-.23-1.59-.52-2.12-.87l1.07-2.33c.53.31,1.15.56,1.86.77s1.4.3,2.09.3c.76,0,1.29-.09,1.61-.27.32-.18.47-.43.47-.76,0-.27-.12-.47-.37-.6-.25-.13-.57-.23-.97-.3-.4-.07-.84-.14-1.33-.21-.49-.07-.98-.17-1.46-.29s-.93-.3-1.34-.54-.74-.55-.99-.96c-.25-.41-.37-.93-.37-1.58,0-.71.21-1.35.63-1.9.42-.55,1.02-.98,1.79-1.29.77-.31,1.7-.46,2.79-.46.78,0,1.57.09,2.36.26.79.18,1.46.42,2.01.72l-1.11,2.33c-.53-.31-1.08-.53-1.63-.65s-1.08-.19-1.59-.19c-.76,0-1.3.1-1.64.29-.34.2-.5.45-.5.76,0,.28.13.49.38.64.25.15.58.26.99.33s.85.14,1.35.21c.49.07.97.17,1.45.29.48.13.92.3,1.33.54s.74.55.99.96.37.93.37,1.58c0,.69-.21,1.3-.63,1.84-.42.54-1.03.96-1.82,1.27-.79.31-1.75.46-2.89.46Z"/>
        <path class="cls-2" d="M1711.61,525.08v-11.31h3.13v3.21l-.44-.95c.34-.8.88-1.4,1.62-1.82.74-.41,1.65-.62,2.71-.62v3.05c-.13-.03-.25-.05-.37-.06s-.24-.02-.35-.02c-.92,0-1.66.26-2.21.78-.55.52-.82,1.32-.82,2.4v5.34h-3.28Z"/>
        <path class="cls-2" d="M1726.28,525.25c-1.29,0-2.42-.25-3.38-.76-.97-.5-1.72-1.19-2.25-2.07-.53-.88-.8-1.87-.8-2.99s.26-2.12.77-3.01c.51-.88,1.23-1.57,2.14-2.07.92-.5,1.95-.75,3.1-.75s2.11.24,3,.71c.89.48,1.59,1.15,2.11,2.02.52.87.78,1.91.78,3.13,0,.13,0,.27-.02.43-.01.16-.03.31-.04.45h-9.18v-1.91h7.46l-1.28.57c.01-.59-.1-1.1-.34-1.53-.24-.43-.57-.77-.99-1.02s-.91-.37-1.47-.37-1.05.12-1.48.37c-.43.25-.76.59-1,1.03-.24.44-.36.96-.36,1.57v.5c0,.63.14,1.18.42,1.64.28.46.67.82,1.16,1.06.49.25,1.08.37,1.76.37.59,0,1.11-.09,1.57-.27.46-.18.87-.46,1.25-.82l1.74,1.89c-.52.59-1.17,1.04-1.95,1.36-.79.32-1.69.47-2.71.47Z"/>
        <path class="cls-2" d="M1737.73,525.25c-.97,0-1.89-.12-2.77-.35-.88-.23-1.59-.52-2.12-.87l1.07-2.33c.53.31,1.15.56,1.86.77s1.4.3,2.09.3c.76,0,1.29-.09,1.61-.27.32-.18.47-.43.47-.76,0-.27-.12-.47-.37-.6-.25-.13-.57-.23-.97-.3-.4-.07-.84-.14-1.33-.21-.49-.07-.98-.17-1.46-.29s-.93-.3-1.34-.54-.74-.55-.99-.96c-.25-.41-.37-.93-.37-1.58,0-.71.21-1.35.63-1.9.42-.55,1.02-.98,1.79-1.29.77-.31,1.7-.46,2.79-.46.78,0,1.57.09,2.36.26.79.18,1.46.42,2.01.72l-1.11,2.33c-.53-.31-1.08-.53-1.63-.65s-1.08-.19-1.59-.19c-.76,0-1.3.1-1.64.29-.34.2-.5.45-.5.76,0,.28.13.49.38.64.25.15.58.26.99.33s.85.14,1.35.21c.49.07.97.17,1.45.29.48.13.92.3,1.33.54s.74.55.99.96.37.93.37,1.58c0,.69-.21,1.3-.63,1.84-.42.54-1.03.96-1.82,1.27-.79.31-1.75.46-2.89.46Z"/>
        <path class="cls-2" d="M1750.7,525.25c-1.29,0-2.42-.25-3.38-.76-.97-.5-1.72-1.19-2.25-2.07-.53-.88-.8-1.87-.8-2.99s.26-2.12.77-3.01c.51-.88,1.23-1.57,2.14-2.07.92-.5,1.95-.75,3.1-.75s2.11.24,3,.71c.89.48,1.59,1.15,2.11,2.02.52.87.78,1.91.78,3.13,0,.13,0,.27-.02.43-.01.16-.03.31-.04.45h-9.18v-1.91h7.46l-1.28.57c.01-.59-.1-1.1-.34-1.53-.24-.43-.57-.77-.99-1.02s-.91-.37-1.47-.37-1.05.12-1.48.37c-.43.25-.76.59-1,1.03-.24.44-.36.96-.36,1.57v.5c0,.63.14,1.18.42,1.64.28.46.67.82,1.16,1.06.49.25,1.08.37,1.76.37.59,0,1.11-.09,1.57-.27.46-.18.87-.46,1.25-.82l1.74,1.89c-.52.59-1.17,1.04-1.95,1.36-.79.32-1.69.47-2.71.47Z"/>
        <path class="cls-2" d="M1758.34,525.08v-11.31h3.13v3.21l-.44-.95c.34-.8.88-1.4,1.62-1.82.74-.41,1.65-.62,2.71-.62v3.05c-.13-.03-.25-.05-.37-.06s-.24-.02-.35-.02c-.92,0-1.66.26-2.21.78-.55.52-.82,1.32-.82,2.4v5.34h-3.28Z"/>
        <path class="cls-2" d="M1770.49,525.08l-4.75-11.31h3.36l3.95,9.73h-1.68l4.12-9.73h3.13l-4.77,11.31h-3.36Z"/>
        <path class="cls-2" d="M1783.46,525.25c-.87,0-1.62-.15-2.25-.45-.63-.3-1.12-.71-1.46-1.23-.34-.52-.51-1.1-.51-1.74s.17-1.24.49-1.75.85-.91,1.57-1.19,1.65-.42,2.82-.42h2.98v1.89h-2.65c-.77,0-1.3.13-1.59.38s-.43.57-.43.95c0,.42.16.75.49,1,.33.25.77.37,1.33.37s1.06-.13,1.5-.38c.44-.25.75-.64.93-1.16l.5,1.53c-.24.7-.67,1.24-1.3,1.63-.63.39-1.44.58-2.44.58ZM1786.9,525.08v-2.21l-.21-.48v-3.95c0-.7-.21-1.25-.64-1.64-.43-.39-1.08-.59-1.96-.59-.6,0-1.19.09-1.78.28-.58.19-1.08.44-1.5.77l-1.16-2.29c.62-.45,1.36-.79,2.23-1.02.87-.23,1.75-.35,2.65-.35,1.72,0,3.06.41,4.01,1.22.95.81,1.43,2.08,1.43,3.8v6.45h-3.07Z"/>
        <path class="cls-2" d="M1797.79,525.25c-1.06,0-2.02-.24-2.88-.72s-1.53-1.16-2.02-2.03c-.49-.87-.74-1.89-.74-3.07s.25-2.2.74-3.07c.49-.87,1.16-1.54,2.02-2.03s1.81-.72,2.88-.72c.95,0,1.79.21,2.5.63.71.42,1.27,1.06,1.66,1.91.39.85.59,1.95.59,3.28s-.19,2.41-.57,3.28c-.38.87-.92,1.51-1.63,1.92-.71.41-1.56.62-2.55.62ZM1798.33,522.56c.55,0,1.04-.12,1.47-.37.43-.25.78-.61,1.04-1.08.26-.48.39-1.04.39-1.68s-.13-1.22-.39-1.68c-.26-.46-.61-.82-1.04-1.06-.43-.24-.92-.37-1.47-.37s-1.02.12-1.45.37c-.43.25-.78.6-1.04,1.06-.26.46-.39,1.02-.39,1.68s.13,1.21.39,1.68c.26.48.61.84,1.04,1.08.43.25.92.37,1.45.37ZM1801.32,525.08v-2.31l.06-3.36-.21-3.34v-6.58h3.28v15.59h-3.13Z"/>
        <path class="cls-2" d="M1812.83,525.25c-1.19,0-2.25-.25-3.18-.76-.93-.5-1.66-1.19-2.2-2.07-.53-.88-.8-1.87-.8-2.99s.27-2.14.8-3.02c.53-.88,1.26-1.56,2.2-2.06s1.99-.75,3.18-.75,2.28.25,3.22.75c.94.5,1.67,1.18,2.21,2.06.53.88.8,1.88.8,3.02s-.27,2.14-.8,3c-.53.87-1.27,1.55-2.21,2.06-.94.5-2.01.76-3.22.76ZM1812.83,522.56c.56,0,1.05-.12,1.48-.37.43-.25.77-.61,1.03-1.08.26-.48.39-1.04.39-1.68s-.13-1.22-.39-1.68c-.26-.46-.6-.82-1.03-1.06-.43-.24-.92-.37-1.46-.37s-1.04.12-1.47.37c-.43.25-.78.6-1.04,1.06-.26.46-.39,1.02-.39,1.68s.13,1.21.39,1.68c.26.48.61.84,1.04,1.08.43.25.92.37,1.45.37Z"/>
        <path class="cls-2" d="M1825.04,525.25c-.97,0-1.89-.12-2.77-.35-.88-.23-1.59-.52-2.12-.87l1.07-2.33c.53.31,1.15.56,1.86.77s1.4.3,2.09.3c.76,0,1.29-.09,1.61-.27.32-.18.47-.43.47-.76,0-.27-.12-.47-.37-.6-.25-.13-.57-.23-.97-.3-.4-.07-.84-.14-1.33-.21-.49-.07-.98-.17-1.46-.29s-.93-.3-1.34-.54-.74-.55-.99-.96c-.25-.41-.37-.93-.37-1.58,0-.71.21-1.35.63-1.9.42-.55,1.02-.98,1.79-1.29.77-.31,1.7-.46,2.79-.46.78,0,1.57.09,2.36.26.79.18,1.46.42,2.01.72l-1.11,2.33c-.53-.31-1.08-.53-1.63-.65s-1.08-.19-1.59-.19c-.76,0-1.3.1-1.64.29-.34.2-.5.45-.5.76,0,.28.13.49.38.64.25.15.58.26.99.33s.85.14,1.35.21c.49.07.97.17,1.45.29.48.13.92.3,1.33.54s.74.55.99.96.37.93.37,1.58c0,.69-.21,1.3-.63,1.84-.42.54-1.03.96-1.82,1.27-.79.31-1.75.46-2.89.46Z"/>
        <path class="cls-2" d="M1833.64,525.25c-.56,0-1.04-.19-1.44-.58-.4-.38-.6-.87-.6-1.46s.2-1.11.6-1.49.88-.57,1.44-.57,1.06.19,1.45.57c.39.38.59.88.59,1.49s-.2,1.08-.59,1.46c-.39.39-.88.58-1.45.58Z"/>
      </g>
    </g>
  </g>
</svg>